<?xml version="1.0" encoding="iso-8859-1"?>
<!-- Uploaded to: SVG Repo, www.svgrepo.com, Generator: SVG Repo Mixer Tools -->
<svg fill="#000000" height="800px" width="800px" version="1.1" id="Layer_1" xmlns="http://www.w3.org/2000/svg" xmlns:xlink="http://www.w3.org/1999/xlink" 
	 viewBox="0 0 512 512" xml:space="preserve">
<g>
	<g>
		<polygon points="376.889,227.556 433.778,227.556 376.889,0 334.222,0 334.222,284.444 320,284.444 320,512 391.111,512 
			391.111,284.444 376.889,284.444 		"/>
	</g>
</g>
<g>
	<g>
		<path d="M248.889,0v92.444c0,27.812-17.838,51.524-42.667,60.331V0h-42.667v152.775c-24.829-8.806-42.667-32.519-42.667-60.331V0
			H78.222v92.444c0,51.605,36.646,94.645,85.333,104.529v87.471h-14.222V512h71.111V284.444h-14.222v-87.471
			c48.687-9.884,85.333-52.924,85.333-104.529V0H248.889z"/>
	</g>
</g>
</svg>